<svg width="106" height="20" viewBox="0 0 106 20" fill="none" xmlns="http://www.w3.org/2000/svg">
<path d="M10.3867 19H0.308594V2.19531H10V5.27734H4.09375V9.01562H9.58984V12.0859H4.09375V15.9297H10.3867V19ZM24.3086 19H20.6172V12.332C20.6172 10.4727 19.9531 9.54297 18.625 9.54297C17.9844 9.54297 17.457 9.78906 17.043 10.2812C16.6289 10.7734 16.4219 11.3984 16.4219 12.1562V19H12.7188V7H16.4219V8.89844H16.4688C17.3516 7.4375 18.6367 6.70703 20.3242 6.70703C22.9805 6.70703 24.3086 8.35547 24.3086 11.6523V19ZM26.4648 18.6836V15.6836C27.0742 16.0508 27.6797 16.3242 28.2812 16.5039C28.8906 16.6836 29.4648 16.7734 30.0039 16.7734C30.6602 16.7734 31.1758 16.6836 31.5508 16.5039C31.9336 16.3242 32.125 16.0508 32.125 15.6836C32.125 15.4492 32.0391 15.2539 31.8672 15.0977C31.6953 14.9414 31.4727 14.8047 31.1992 14.6875C30.9336 14.5703 30.6406 14.4648 30.3203 14.3711C30 14.2773 29.6914 14.1719 29.3945 14.0547C28.918 13.875 28.4961 13.6836 28.1289 13.4805C27.7695 13.2695 27.4648 13.0273 27.2148 12.7539C26.9727 12.4805 26.7852 12.1641 26.6523 11.8047C26.5273 11.4453 26.4648 11.0195 26.4648 10.5273C26.4648 9.85547 26.6094 9.27734 26.8984 8.79297C27.1953 8.30859 27.5859 7.91406 28.0703 7.60938C28.5625 7.29688 29.1211 7.07031 29.7461 6.92969C30.3789 6.78125 31.0352 6.70703 31.7148 6.70703C32.2461 6.70703 32.7852 6.75 33.332 6.83594C33.8789 6.91406 34.418 7.03125 34.9492 7.1875V10.0469C34.4805 9.77344 33.9766 9.57031 33.4375 9.4375C32.9062 9.29688 32.3828 9.22656 31.8672 9.22656C31.625 9.22656 31.3945 9.25 31.1758 9.29688C30.9648 9.33594 30.7773 9.39844 30.6133 9.48438C30.4492 9.5625 30.3203 9.66797 30.2266 9.80078C30.1328 9.92578 30.0859 10.0703 30.0859 10.2344C30.0859 10.4531 30.1562 10.6406 30.2969 10.7969C30.4375 10.9531 30.6211 11.0898 30.8477 11.207C31.0742 11.3164 31.3242 11.418 31.5977 11.5117C31.8789 11.5977 32.1562 11.6875 32.4297 11.7812C32.9219 11.9531 33.3672 12.1406 33.7656 12.3438C34.1641 12.5469 34.5039 12.7852 34.7852 13.0586C35.0742 13.332 35.293 13.6523 35.4414 14.0195C35.5977 14.3867 35.6758 14.8242 35.6758 15.332C35.6758 16.043 35.5195 16.6523 35.207 17.1602C34.9023 17.6602 34.4922 18.0703 33.9766 18.3906C33.4688 18.7031 32.8789 18.9297 32.207 19.0703C31.543 19.2188 30.8516 19.293 30.1328 19.293C28.8125 19.293 27.5898 19.0898 26.4648 18.6836ZM47.8047 19H44.3008V17.2773H44.2539C43.4492 18.6211 42.2578 19.293 40.6797 19.293C39.5156 19.293 38.5977 18.9648 37.9258 18.3086C37.2617 17.6445 36.9297 16.7617 36.9297 15.6602C36.9297 13.332 38.3086 11.9883 41.0664 11.6289L44.3242 11.1953C44.3242 9.88281 43.6133 9.22656 42.1914 9.22656C40.7617 9.22656 39.4023 9.65234 38.1133 10.5039V7.71484C38.6289 7.44922 39.332 7.21484 40.2227 7.01172C41.1211 6.80859 41.9375 6.70703 42.6719 6.70703C46.0938 6.70703 47.8047 8.41406 47.8047 11.8281V19ZM44.3242 14.125V13.3164L42.1445 13.5977C40.9414 13.7539 40.3398 14.2969 40.3398 15.2266C40.3398 15.6484 40.4844 15.9961 40.7734 16.2695C41.0703 16.5352 41.4688 16.668 41.9688 16.668C42.6641 16.668 43.2305 16.4297 43.668 15.9531C44.1055 15.4688 44.3242 14.8594 44.3242 14.125ZM58.5625 4.07031C58.0859 3.88281 57.6289 3.78906 57.1914 3.78906C56.0039 3.78906 55.4102 4.43359 55.4102 5.72266V7H58.1523V9.73047H55.4102V19H51.7188V9.73047H49.7031V7H51.7188V5.51172C51.7188 4.14453 52.1641 3.04297 53.0547 2.20703C53.9453 1.37109 55.1562 0.953125 56.6875 0.953125C57.4375 0.953125 58.0625 1.03125 58.5625 1.1875V4.07031ZM70.7266 14.0547H62.8984C63.0234 15.7969 64.1211 16.668 66.1914 16.668C67.5117 16.668 68.6719 16.3555 69.6719 15.7305V18.4023C68.5625 18.9961 67.1211 19.293 65.3477 19.293C63.4102 19.293 61.9062 18.7578 60.8359 17.6875C59.7656 16.6094 59.2305 15.1094 59.2305 13.1875C59.2305 11.1953 59.8086 9.61719 60.9648 8.45312C62.1211 7.28906 63.543 6.70703 65.2305 6.70703C66.9805 6.70703 68.332 7.22656 69.2852 8.26562C70.2461 9.30469 70.7266 10.7148 70.7266 12.4961V14.0547ZM67.293 11.7812C67.293 10.0625 66.5977 9.20312 65.207 9.20312C64.6133 9.20312 64.0977 9.44922 63.6602 9.94141C63.2305 10.4336 62.9688 11.0469 62.875 11.7812H67.293ZM85.4102 19L75.4023 5.41797C75.1992 5.14453 75.0195 4.87109 74.8633 4.59766L74.7109 4.36328H74.6641C74.6797 4.56641 74.6875 4.8125 74.6875 5.10156V19H73.5273V2.19531H74.418L84.3555 15.6602C84.5742 15.957 84.8125 16.3164 85.0703 16.7383H85.1289C85.0898 16.1914 85.0703 15.7227 85.0703 15.332V2.19531H86.2305V19H85.4102ZM94.0234 13.1172L97.9375 19H96.5664L93.4023 13.9375H93.3555L92.9336 14.6055C92.8789 14.6992 92.8125 14.8047 92.7344 14.9219L90.0859 19H88.7734L92.7812 13.1406L88.8438 7H90.1094L92.7812 11.3008C93.125 11.8555 93.332 12.1992 93.4023 12.332H93.4492L94.0469 11.3477L96.8359 7H98.1016L94.0234 13.1172ZM105.156 18.8359C104.594 19.1016 104.066 19.2344 103.574 19.2344C101.801 19.2344 100.914 18.1719 100.914 16.0469V7.98438H98.7578V7H100.914V3.88281C101.086 3.82031 101.266 3.75781 101.453 3.69531C101.641 3.64062 101.82 3.58203 101.992 3.51953V7H105.156V7.98438H101.992V15.9062C101.992 16.7344 102.121 17.3359 102.379 17.7109C102.645 18.0781 103.09 18.2617 103.715 18.2617C104.16 18.2617 104.641 18.1172 105.156 17.8281V18.8359Z" fill="white"/>
</svg>
